HIERARCHY
ROOT Hips
{
 OFFSET 0.000000 0.000000 0.000000
 CHANNELS 6 Xposition Yposition Zposition Yrotation Xrotation Zrotation
 JOINT Chest
 {
  OFFSET 0.000000 9.585900 0.002600
  CHANNELS 3 Yrotation Xrotation Zrotation
  JOINT Chest2
  {
   OFFSET 0.000000 9.601200 -0.005300
   CHANNELS 3 Yrotation Xrotation Zrotation
   JOINT Chest3
   {
    OFFSET 0.000000 9.561800 0.000000
    CHANNELS 3 Yrotation Xrotation Zrotation
    JOINT Chest4
    {
     OFFSET 0.000000 9.552100 0.000000
     CHANNELS 3 Yrotation Xrotation Zrotation
     JOINT Neck
     {
      OFFSET 0.000000 14.453000 0.000000
      CHANNELS 3 Yrotation Xrotation Zrotation
      JOINT Head
      {
       OFFSET 0.000000 8.936500 -0.011300
       CHANNELS 3 Yrotation Xrotation Zrotation
       End Site
       {
        OFFSET 0.000000 17.073600 -0.006000
       }
      }
     }
     JOINT RightCollar
     {
      OFFSET -2.921100 9.558500 0.000000
      CHANNELS 3 Yrotation Xrotation Zrotation
      JOINT RightShoulder
      {
       OFFSET -13.519700 0.000000 0.000000
       CHANNELS 3 Yrotation Xrotation Zrotation
       JOINT RightElbow
       {
        OFFSET 0.000000 -29.696600 0.000000
        CHANNELS 3 Yrotation Xrotation Zrotation
        JOINT RightWrist
        {
         OFFSET 0.000000 -24.004700 0.000000
         CHANNELS 3 Yrotation Xrotation Zrotation
         End Site
         {
          OFFSET 0.000000 -17.728500 0.000000
         }
        }
       }
      }
     }
     JOINT LeftCollar
     {
      OFFSET 2.921100 9.558500 0.000000
      CHANNELS 3 Yrotation Xrotation Zrotation
      JOINT LeftShoulder
      {
       OFFSET 13.519700 0.000000 0.000000
       CHANNELS 3 Yrotation Xrotation Zrotation
       JOINT LeftElbow
       {
        OFFSET 0.000000 -29.696600 0.000000
        CHANNELS 3 Yrotation Xrotation Zrotation
        JOINT LeftWrist
        {
         OFFSET 0.000000 -24.004700 0.000000
         CHANNELS 3 Yrotation Xrotation Zrotation
         End Site
         {
          OFFSET 0.000000 -17.728500 0.000000
         }
        }
       }
      }
     }
    }
   }
  }
 }
 JOINT RightHip
 {
  OFFSET -7.771700 -0.012900 -0.001300
  CHANNELS 3 Yrotation Xrotation Zrotation
  JOINT RightKnee
  {
   OFFSET 0.000000 -40.869800 0.001200
   CHANNELS 3 Yrotation Xrotation Zrotation
   JOINT RightAnkle
   {
    OFFSET 0.000000 -39.717900 0.002100
    CHANNELS 3 Yrotation Xrotation Zrotation
    JOINT RightToe
    {
     OFFSET 0.000000 -4.965400 11.033500
     CHANNELS 3 Yrotation Xrotation Zrotation
     End Site
     {
      OFFSET 0.000000 -1.423100 5.872300
     }
    }
   }
  }
 }
 JOINT LeftHip
 {
  OFFSET 7.771700 -0.012900 -0.001300
  CHANNELS 3 Yrotation Xrotation Zrotation
  JOINT LeftKnee
  {
   OFFSET 0.000000 -40.869800 0.001200
   CHANNELS 3 Yrotation Xrotation Zrotation
   JOINT LeftAnkle
   {
    OFFSET 0.000000 -39.717900 0.002100
    CHANNELS 3 Yrotation Xrotation Zrotation
    JOINT LeftToe
    {
     OFFSET 0.000000 -4.965400 11.033500
     CHANNELS 3 Yrotation Xrotation Zrotation
     End Site
     {
      OFFSET 0.000000 -1.423100 5.872300
     }
    }
   }
  }
 }
}
MOTION
Frames: 11
Frame Time: 0.008333
0.000000 85.388000 0.000000 0.000000 -5.767877 0.000000 0.000000 11.653817 0.000000 0.000000 -5.885947 0.000000 0.000000 -0.000000 0.000000 0.000000 -0.000000 0.000000 0.000000 12.528835 0.000000 0.000000 0.711642 0.000000 0.000000 -0.000000 0.000000 0.000000 0.000000 -90.000000 0.000000 -2.309062 0.000000 0.000000 2.309062 0.000000 0.000000 -0.000000 0.000000 0.000000 -0.000000 90.000000 0.000000 -2.309062 0.000000 0.000000 2.309062 0.000000 0.000000 8.520406 0.000000 0.000000 1.905762 0.000000 -0.000000 -4.658285 0.000000 0.000000 -0.000000 0.000000 0.000000 8.520406 0.000000 0.000000 1.905762 0.000000 -0.000000 -4.658285 0.000000 0.000000 -0.000000 0.000000
-45.720635 56.183339 43.834895 -168.170756 -28.707290 -10.341784 -3.568314 14.311750 5.723458 -2.096227 8.217662 1.731574 -2.585520 10.281482 2.123341 -2.098473 8.217425 1.730850 1.027340 20.150648 -1.242021 1.382214 -4.344074 -1.558768 1.445382 -1.780302 -4.031025 0.517352 -8.881592 2.473593 76.652513 -42.972611 -59.791253 10.102311 6.038017 -19.115079 -9.424856 -0.254011 -4.170696 -6.419074 -6.526426 1.994546 -69.077746 -40.260359 72.773637 -4.163786 -9.448542 -2.453836 -24.682684 -29.853896 3.281363 81.782322 89.122439 79.441951 1.386650 -26.777887 -2.101963 -0.096290 0.720484 -0.028699 -17.311175 -46.564227 6.161943 171.647963 72.798782 169.478070 0.115918 -22.938283 -0.684370 -1.355228 -4.005890 -0.602429
-45.719943 56.183245 43.832722 -168.179650 -28.716846 -10.337942 -3.562533 14.322802 5.723571 -2.097573 8.217659 1.729653 -2.584758 10.278595 2.121494 -2.096905 8.217332 1.730949 1.022374 20.144530 -1.243253 1.387431 -4.350258 -1.554664 1.456763 -1.784243 -4.029700 0.508689 -8.879953 2.468004 76.630172 -42.985154 -59.771884 10.098025 6.023080 -19.107010 -9.414727 -0.256148 -4.172808 -6.420952 -6.527194 1.988061 -69.089510 -40.252858 72.776747 -4.175115 -9.437058 -2.460153 -24.693175 -29.845832 3.274762 82.066926 89.116703 79.720266 1.402632 -26.780849 -2.116512 -0.100679 0.717395 -0.030627 -17.302219 -46.553550 6.154317 171.602585 72.794604 169.435284 0.123833 -22.946958 -0.687758 -1.363600 -4.001010 -0.608959
-45.717900 56.182915 43.830999 -168.187106 -28.722541 -10.342342 -3.558205 14.331512 5.731555 -2.098371 8.218541 1.727857 -2.585105 10.276813 2.118556 -2.098312 8.217441 1.729093 1.023413 20.136554 -1.243415 1.378221 -4.380862 -1.556773 1.468036 -1.790025 -4.028723 0.509388 -8.883583 2.466264 76.612500 -42.989191 -59.756887 10.085621 6.015470 -19.100346 -9.407877 -0.255330 -4.175520 -6.418882 -6.530336 1.990709 -69.095397 -40.245355 72.783626 -4.187522 -9.438007 -2.465817 -24.695764 -29.836761 3.277493 82.047382 89.122884 79.704010 1.412155 -26.786032 -2.126791 -0.097044 0.717097 -0.029106 -17.302274 -46.548589 6.157927 171.551719 72.786728 169.393802 0.123000 -22.946889 -0.696063 -1.362961 -4.004372 -0.610200
-45.716169 56.182098 43.830116 -168.199134 -28.725117 -10.342193 -3.548122 14.334061 5.737225 -2.099104 8.220573 1.726797 -2.588135 10.279685 2.118188 -2.100453 8.222696 1.725650 1.027359 20.120802 -1.243416 1.373105 -4.396868 -1.558421 1.481855 -1.798971 -4.030832 0.485146 -8.891580 2.459982 76.609006 -43.014352 -59.732088 10.082359 6.010527 -19.096568 -9.410094 -0.257864 -4.176147 -6.411458 -6.540924 1.988015 -69.118175 -40.218785 72.790826 -4.181838 -9.426894 -2.457222 -24.709017 -29.832641 3.280332 82.119862 89.124031 79.775332 1.421125 -26.793509 -2.144101 -0.099356 0.712137 -0.031708 -17.296671 -46.547201 6.155928 171.501797 72.780875 169.359602 0.116556 -22.949336 -0.712519 -1.356262 -4.004220 -0.608000
-45.714081 56.181406 43.829297 -168.203340 -28.728515 -10.348527 -3.543089 14.338459 5.745204 -2.099479 8.222028 1.725702 -2.588677 10.282587 2.116753 -2.097921 8.219376 1.726738 1.026679 20.117207 -1.242840 1.362417 -4.418110 -1.560936 1.472301 -1.799614 -4.030890 0.476913 -8.893147 2.454326 76.607559 -43.042862 -59.719351 10.086234 6.003191 -19.088891 -9.413569 -0.256967 -4.176136 -6.412714 -6.538257 1.963401 -69.168204 -40.149081 72.835569 -4.133332 -9.409774 -2.456517 -24.710960 -29.825945 3.283810 82.176988 89.120685 79.836856 1.424951 -26.797040 -2.149338 -0.098876 0.709232 -0.033649 -17.299752 -46.542034 6.160423 171.480142 72.777655 169.350688 0.111873 -22.958263 -0.722784 -1.347570 -3.997778 -0.606328
-45.713076 56.180472 43.829100 -168.211482 -28.732937 -10.346310 -3.538079 14.345366 5.744291 -2.096816 8.219644 1.726799 -2.587145 10.283154 2.116131 -2.102374 8.221773 1.723469 1.025667 20.103550 -1.243463 1.355777 -4.431878 -1.563177 1.472909 -1.802685 -4.027156 0.460622 -8.893313 2.447368 76.615209 -43.070878 -59.709254 10.087658 6.001512 -19.086418 -9.414807 -0.254092 -4.175241 -6.416770 -6.538235 1.957626 -69.193894 -40.114141 72.867403 -4.126799 -9.404266 -2.462652 -24.709856 -29.823516 3.279067 82.373649 89.126750 80.036376 1.432212 -26.801931 -2.157930 -0.097926 0.709052 -0.034386 -17.297915 -46.540374 6.158600 171.462759 72.774285 169.336943 0.120353 -22.957683 -0.728694 -1.353550 -3.998859 -0.608518
-45.711422 56.179962 43.828897 -168.215583 -28.740823 -10.350305 -3.533793 14.353292 5.747174 -2.096614 8.219845 1.728281 -2.589922 10.284788 2.114448 -2.106798 8.223072 1.719781 1.026407 20.091353 -1.244649 1.352567 -4.445028 -1.567859 1.471073 -1.800339 -4.022997 0.453874 -8.899053 2.440070 76.613152 -43.108517 -59.682345 10.103315 6.004184 -19.097104 -9.428046 -0.253061 -4.175276 -6.407383 -6.534910 1.954174 -69.214995 -40.081432 72.899870 -4.120333 -9.393599 -2.468634 -24.711631 -29.813713 3.273882 82.431434 89.121123 80.101231 1.440501 -26.806975 -2.170779 -0.094201 0.712023 -0.033037 -17.313772 -46.536221 6.166269 171.445482 72.767415 169.316126 0.139898 -22.946108 -0.735454 -1.370598 -4.010541 -0.612087
-45.710088 56.178729 43.830596 -168.215951 -28.740315 -10.351818 -3.535788 14.352580 5.746250 -2.095672 8.222901 1.725870 -2.592559 10.286000 2.112635 -2.111375 8.220006 1.721860 1.025362 20.082634 -1.252067 1.357563 -4.447128 -1.565827 1.468505 -1.795840 -4.022227 0.452284 -8.904149 2.437135 76.620780 -43.126064 -59.672357 10.107797 6.004518 -19.099023 -9.424169 -0.251848 -4.174713 -6.415783 -6.528478 1.950780 -69.223423 -40.059522 72.923237 -4.123726 -9.390412 -2.476838 -24.717551 -29.814191 3.276089 82.537802 89.114422 80.205813 1.440263 -26.811455 -2.173151 -0.095845 0.711797 -0.034658 -17.331382 -46.537914 6.162389 171.436030 72.767653 169.316751 0.151291 -22.948542 -0.759766 -1.362425 -4.004548 -0.609527
-45.708110 56.178076 43.832225 -168.226645 -28.746625 -10.351976 -3.525567 14.357099 5.750415 -2.101463 8.221767 1.723287 -2.594348 10.286305 2.111788 -2.113308 8.219850 1.721119 1.011895 20.064335 -1.261488 1.374684 -4.436818 -1.566242 1.467381 -1.789575 -4.024351 0.456356 -8.908155 2.438318 76.625305 -43.136892 -59.670407 10.114722 6.003949 -19.096397 -9.419735 -0.249104 -4.177267 -6.426255 -6.521771 1.952367 -69.217164 -40.053257 72.936113 -4.140606 -9.397448 -2.480921 -24.709131 -29.809576 3.277321 82.528699 89.125355 80.200699 1.444448 -26.813054 -2.177019 -0.097216 0.710461 -0.036366 -17.343709 -46.534993 6.169405 171.431554 72.764485 169.311294 0.166524 -22.941042 -0.766532 -1.366984 -4.010543 -0.617695
-45.701772 56.179984 43.830997 -168.256393 -28.777038 -10.371851 -3.495712 14.384878 5.781196 -2.102607 8.221827 1.721569 -2.595975 10.286633 2.109563 -2.112108 8.215446 1.720307 1.011681 20.059935 -1.266441 1.364597 -4.460782 -1.577460 1.461102 -1.782230 -4.019883 0.472996 -8.909154 2.432719 76.625409 -43.144180 -59.672661 10.124812 6.001720 -19.097014 -9.421498 -0.243315 -4.181405 -6.428039 -6.517006 1.955301 -69.249108 -40.034820 72.963639 -4.131394 -9.375193 -2.477987 -24.690155 -29.768750 3.301866 81.877119 89.122156 79.555845 1.450942 -26.807720 -2.184391 -0.098476 0.704437 -0.039206 -17.354771 -46.503741 6.209783 171.426406 72.760913 169.301930 0.211324 -22.905174 -0.769066 -1.405849 -4.045812 -0.635047
